# xmcd
#
# Track frame offsets: 
#        150
#        17460
#        28653
#        40175
#        51829
#        64882
#        76597
#        87426
#        98995
#        112021
#        124190
#        137472
#        147218
#        160864
#        173599
#        184820
#        197807
#        211186
#        221275
#        232751
#        246705
#        265932
#        277479
#        293485
#
# Disc length: 4065 seconds
#
# Revision: 1
# Processed by: cddbd v1.5.2PL0 Copyright (c) Steve Scherf et al.
# Submitted via: ExactAudioCopy v1.0b1
#
DISCID=580fdf18
DTITLE=Albert King - Complete King and Bobbin Recordings
DYEAR=2004
DGENRE=Blues
TTITLE0=Ooh-Ee Baby
TTITLE1=Why Are You So Mean To Me
TTITLE2=Need You By My Side
TTITLE3=The Night Has Come
TTITLE4=I Walked All Night Long
TTITLE5=I've Made Nights By Myself
TTITLE6=Old Blue Ribbon
TTITLE7=I've Made Nights By Myself (alt)
TTITLE8=Let's Have A Natural Ball
TTITLE9=Blues At Sunrise
TTITLE10=Don't thjrow Your Love On Me So Strong
TTITLE11=This Morning
TTITLE12=Travelling to California
TTITLE13=Dyna Flow
TTITLE14=I Get Evil
TTITLE15=What Can I Do To Change Your Mind
TTITLE16=I'll Do Anything You Say
TTITLE17=Got to Be Some Changes Made
TTITLE18=This Funny Feeling
TTITLE19=had You Told It Like It Was
TTITLE20=Ooh-Ee Baby (LP ver)
TTITLE21=Blues At Sunrise (alt)
TTITLE22=The Time Has Come (alt)
TTITLE23=Why Are You So Mean To Me (alt)
EXTD=
EXTT0=
EXTT1=
EXTT2=
EXTT3=
EXTT4=
EXTT5=
EXTT6=
EXTT7=
EXTT8=
EXTT9=
EXTT10=
EXTT11=
EXTT12=
EXTT13=
EXTT14=
EXTT15=
EXTT16=
EXTT17=
EXTT18=
EXTT19=
EXTT20=
EXTT21=
EXTT22=
EXTT23=
PLAYORDER=
